<svg t="1757921455223" class="icon" viewBox="0 0 1025 1024" version="1.1" xmlns="http://www.w3.org/2000/svg"
     p-id="18903" width="200" height="200">
    <path d="M536.90625 767.004835l-0.12996-553.133839C531.940145 94.330412 587.586512 45.518706 688.058808 27.390837 765.535367 13.419637 844.827271 9.577123 934.916079 0c0 229.904157-0.303922 653.305283-0.303922 653.305283l0.303922 54.621015C934.916079 707.926298 731.290425 692.033329 536.90625 767.004835L536.90625 767.004835z"
          p-id="18904"></path>
    <path d="M555.897789 805.808606c139.578965-22.695908 280.573163-45.38977 434.834526-70.469981 0-207.879538 0-631.473045 0-631.473045l33.225729 0 0.081864 658.745179c-0.734734 27.217898-30.17423 76.008114-47.708582 76.883041l-393.754922 0.134053C571.908438 839.390445 555.897789 805.808606 555.897789 805.808606z"
          p-id="18905"></path>
    <path d="M490.135016 767.004835l0.12996-553.133839c4.837168-119.540583-50.829665-168.353312-151.304008-186.480158C261.505899 13.419637 182.215018 9.577123 92.105744 0c0 229.904157 0.323365 653.305283 0.323365 653.305283l-0.323365 54.621015C92.105744 707.926298 295.752888 692.033329 490.135016 767.004835L490.135016 767.004835z"
          p-id="18906"></path>
    <path d="M467.715401 805.808606c-139.578965-22.695908-278.54804-45.38977-432.810427-70.469981 0-207.879538-0.00614-631.473045-0.00614-631.473045l-34.888602-0.005117-0.010233 658.750295c0.734734 27.217898 31.79617 76.008114 49.309032 76.883041l391.742079 0.134053C451.738521 839.390445 467.715401 805.808606 467.715401 805.808606z"
          p-id="18907"></path>
</svg>
