<svg viewBox="0 0 24 24" fill="none" xmlns="http://www.w3.org/2000/svg">
  <circle cx="12" cy="8" r="4" fill="currentColor" opacity="0.1"/>
  <path d="M8 14h8a2 2 0 0 1 2 2v2a2 2 0 0 1-2 2H8a2 2 0 0 1-2-2v-2a2 2 0 0 1 2-2z" fill="currentColor" opacity="0.1"/>
  <circle cx="12" cy="8" r="3" stroke="currentColor" stroke-width="2"/>
  <path d="M8 14h8a2 2 0 0 1 2 2v2a2 2 0 0 1-2 2H8a2 2 0 0 1-2-2v-2a2 2 0 0 1 2-2z" stroke="currentColor" stroke-width="2" stroke-linecap="round" stroke-linejoin="round"/>
</svg>