<svg t="1752573567981" class="icon" viewBox="0 0 1024 1024" version="1.1" xmlns="http://www.w3.org/2000/svg"
     p-id="10861" width="200" height="200">
    <path d="M220.54912 317.08672h187.98592V100.67456h394.80832v300.93312h49.4592V51.2h-480.256L171.20256 283.08992v118.51776h49.34656zM114.4576 440.80128v322.13504h56.72448v209.1776l681.62048 0.68608v-209.85856h56.73984V440.80128H114.4576z m627.38432 191.28832c-11.52-10.60352-28.24704-10.96704-42.63936-14.96576-20.91008-5.24288-44.07296-10.01472-58.76224-26.97728-11.4432-14.0288-12.43648-33.84832-8.41728-50.71872 5.43232-22.49216 27.48928-36.61312 49.21856-40.43264a122.50624 122.50624 0 0 1 21.82144-1.87392c22.1184 0 44.38016 6.2208 60.22144 22.1184 11.12576 11.136 16.80384 26.80832 17.25952 42.31168h-38.93248c-0.52224-13.06112-9.6256-25.50784-22.76352-28.01152-14.02368-2.76992-29.99808-3.49184-42.67008 4.09088-11.96544 7.65952-11.64288 28.18048 1.45408 34.45248 15.29856 8.18176 33.1008 9.6256 49.43872 14.7712 17.2032 5.16096 36.29568 9.69216 48.78848 23.57248 11.58144 14.90432 13.16864 35.75296 8.62208 53.53472-6.29248 20.91008-25.95328 34.90304-46.64832 39.48032-20.52096 5.05344-42.27072 3.70176-62.70976-1.01376-20.44928-4.52096-38.6304-17.4592-45.89568-39.27552-1.90464-5.82144-3.72736-22.11328-3.72736-22.11328h39.5264c-0.45056 14.92992 11.83744 27.11552 25.74848 30.3872 14.69952 3.46624 31.29344 3.30752 44.76928-4.08576 12.12416-6.58944 15.232-24.93952 6.2976-35.2512z m-188.30848 0c-11.4944-10.60352-28.22656-10.96704-42.62912-14.96576-20.91008-5.24288-44.07296-10.01472-58.77248-27.06432-11.35616-13.94176-12.50304-33.76128-8.40704-50.63168 5.45792-22.49216 27.49952-36.61312 49.152-40.43264a124.1344 124.1344 0 0 1 21.8368-1.87392c22.1184 0 44.45696 6.2208 60.30848 22.1184 11.04384 11.136 16.7168 26.752 17.23392 42.25024h-38.97856c-0.4608-13.01504-9.56928-25.45152-22.72768-27.95008-14.00832-2.76992-29.99296-3.49184-42.72128 4.09088-11.90912 7.65952-11.6736 28.18048 1.42336 34.45248 15.37024 8.18176 33.1008 9.6256 49.54624 14.7712 17.16736 5.16096 36.28032 9.69216 48.76288 23.57248 11.5968 14.90432 13.17888 35.75296 8.6272 53.53472-6.28224 20.91008-25.9584 34.90304-46.6432 39.48032-20.51584 5.05344-42.25536 3.70176-62.72-1.01376-20.44416-4.52096-38.62016-17.4592-45.89056-39.27552-1.97632-5.82144-3.80928-22.11328-3.80928-22.11328h39.60832c-0.45056 14.92992 11.82208 27.11552 25.69728 30.3872 14.66368 3.46624 31.34464 3.30752 44.8256-4.08576 12.11392-6.58944 15.22688-24.93952 6.27712-35.2512z m-289.4592-108.91264c16.256-17.71008 39.6544-25.7536 62.976-26.05568a100.52608 100.52608 0 0 1 23.01952 2.20672c38.69696 7.95648 58.00448 34.82624 62.40768 68.67968h-41.11872c-4.01408-20.82304-24.2432-37.30944-45.6704-35.36384-15.66208 0.06144-30.88896 9.00096-37.56032 23.32672-10.67008 21.52448-10.67008 46.75072-7.26528 70.00576 2.7904 17.37728 11.35104 37.26336 29.6192 42.31168 29.75232 8.40704 54.22592-3.69152 60.89728-35.8144h41.12384c-4.84352 28.45696-22.27712 56.08448-49.6896 67.4048-25.7536 10.44992-56.4224 8.68864-80.80384-4.47488-28.01152-15.69792-42.8544-47.87712-44.38016-78.98112-2.11456-32.67072 3.0464-67.82976 26.4448-93.24544z m539.26912 400.10752l-582.79424-0.53248v-159.81056h582.79424v160.34304z"
          p-id="10862"></path>
</svg>
