<svg t="1752660351871" class="icon" viewBox="0 0 1024 1024" version="1.1" xmlns="http://www.w3.org/2000/svg" p-id="6274"
     width="200" height="200">
    <path d="M895.3344 594.6112a386.048 386.048 0 0 1-47.9488 116.7872 385.792 385.792 0 0 1-88.7552 100.0448 385.792 385.792 0 0 1-117.4016 64.0512 386.048 386.048 0 0 1-124.5952 20.48c-49.408 0-97.1008-9.0624-143.0528-27.264a384.64 384.64 0 0 1-131.7632-86.528 384.64 384.64 0 0 1-86.528-131.7632A385.2288 385.2288 0 0 1 128 507.3664c0-42.6496 6.8352-84.1728 20.5056-124.5952a385.7664 385.7664 0 0 1 64.0512-117.4016 385.7664 385.7664 0 0 1 100.0448-88.7552 386.048 386.048 0 0 1 116.7872-47.9488l39.8848-9.216-9.1904 39.8848c-5.7344 24.9344-8.6016 50.176-8.6016 75.776 0 42.88 7.8848 84.3008 23.68 124.1856a333.952 333.952 0 0 0 75.136 114.4064 333.952 333.952 0 0 0 114.4064 75.136c39.8848 15.7952 81.3056 23.68 124.2112 23.68 25.5744 0 50.816-2.8672 75.7504-8.6016l39.8592-9.216zM834.56 621.056c-15.104 1.792-30.3104 2.6624-45.6192 2.6624-49.408 0-97.1008-9.088-143.0528-27.2896a384.64 384.64 0 0 1-131.7632-86.528 384.64 384.64 0 0 1-86.528-131.7632 385.2032 385.2032 0 0 1-27.2896-143.0528c0-15.3088 0.896-30.5152 2.6624-45.6192-59.6224 20.8384-109.7472 56.7552-150.3488 107.776C203.6736 358.7328 179.2 428.8 179.2 507.392c0 42.9056 7.8848 84.3008 23.68 124.2112a333.952 333.952 0 0 0 75.1616 114.3808 333.9776 333.9776 0 0 0 114.3808 75.1616c39.9104 15.7696 81.3056 23.68 124.2112 23.68 78.592 0 148.6336-24.4736 210.1248-73.3952 51.0208-40.6016 86.9376-90.7264 107.776-150.3488z"
          p-id="6275"></path>
</svg>
